<svg width="362" height="373" viewBox="0 0 362 373" fill="none" xmlns="http://www.w3.org/2000/svg">
<g opacity="0.55">
<path fill-rule="evenodd" clip-rule="evenodd" d="M9.042 99.5441C-0.0231649 103.489 -2.8321 114.943 3.19188 123.405C8.16726 130.391 12.7447 131.519 36.1139 131.519H56.9214L59.0783 139.329C71.9942 186.094 102.803 294.081 103.942 296.583C104.752 298.361 107.371 300.743 109.761 301.878C113.803 303.795 117.467 303.476 162.206 297.295C188.661 293.641 232.004 287.701 258.524 284.095C303.338 278.003 307.012 277.301 310.55 274.141C314.062 271.007 315.781 265 332.708 196.717C342.801 156.002 351.081 120.572 351.11 117.983C351.147 114.391 350.155 112.378 346.927 109.493C344.6 107.414 341.595 105.712 340.251 105.712C338.906 105.712 281.372 113.672 212.396 123.4C143.421 133.126 86.8538 140.92 86.6922 140.718C86.5305 140.514 84.4374 133.636 82.04 125.43C79.6413 117.225 77.0036 109.697 76.1777 108.702C72.8798 104.727 66.6412 103.135 43.6849 100.408C15.7899 97.0951 14.7346 97.0679 9.042 99.5441ZM299.24 141.367C299.221 142.301 298.645 145.51 297.96 148.498C297.275 151.486 293.626 172.268 289.853 194.679C286.078 217.091 282.676 236.781 282.29 238.434C281.809 240.493 279.989 241.888 276.508 242.866C268.103 245.225 144.24 271.422 141.488 271.422C138.432 271.422 139.339 273.498 123.984 231.353C117.179 212.677 110.499 194.382 109.14 190.698C107.782 187.015 106.969 183.226 107.331 182.28C108.089 180.305 106.743 180.624 212.343 157.401C256.045 147.79 293.484 139.869 295.537 139.798C297.705 139.723 299.259 140.382 299.24 141.367ZM246.161 3.11458C235.056 6.91505 226.031 12.1906 218.689 19.1749C211.692 25.8305 212.929 27.1453 225.256 26.1551C230.03 25.7721 233.937 25.9188 233.937 26.4825C233.937 27.0461 231.432 29.9379 228.37 32.9085C209.642 51.0836 214.606 83.3061 237.104 89.6058C247.154 92.4202 260.784 90.8677 271.245 85.7184C294.971 74.0372 306.774 40.6439 295.198 17.9511C292.197 12.0711 283.059 3.27348 277.922 1.32027C271.731 -1.03227 255.623 -0.123559 246.161 3.11458ZM338.164 277.031C316.633 299.627 304.058 310.063 288.175 318.513C268.759 328.844 238.815 337.228 209.429 340.564C192.129 342.527 162.734 341.541 147.164 338.474C118.84 332.894 88.8817 319.474 62.1969 300.41C46.8646 289.458 43.6849 288.042 43.6849 292.174C43.6849 295.293 55.9502 310.832 66.792 321.447C101.398 355.333 143.396 372.199 193.096 372.169C256.518 372.131 303.906 349.065 339.978 300.67C350.082 287.115 361.115 267.05 361.766 261.052C362.64 252.978 358.249 255.952 338.164 277.031Z" fill="#F2F2F2"/>
<path d="M84.4741 77.2182C92.9515 67.3732 103.792 59.4938 117.474 53.2311C129.132 47.895 149.565 44.684 157.762 46.8964C164.564 48.7337 177.342 58.7925 181.919 65.9113C194.199 85.0174 171.412 79.3458 156.392 74.1185C148.781 71.4698 140.498 71.0273 132.849 73.564L119.932 77.8478L112.599 80.9836C110.375 81.9344 108.053 82.6363 105.675 83.0765L95.4756 84.965C94.32 85.1789 93.1596 85.3383 91.9845 85.3478C87.7931 85.3819 78.0211 84.7131 84.4741 77.2182Z" fill="#F2F2F2"/>
</g>
</svg>
