<svg width="104" height="38" viewBox="0 0 104 38" fill="none" xmlns="http://www.w3.org/2000/svg">
<path fill-rule="evenodd" clip-rule="evenodd" d="M68.2208 10.0576C67.3049 10.4561 67.0211 11.6135 67.6297 12.4684C68.1324 13.1742 68.5949 13.2883 70.9561 13.2883H73.0584L73.2763 14.0774C74.5813 18.8023 77.6941 29.713 77.8092 29.9658C77.891 30.1454 78.1556 30.3861 78.3972 30.5007C78.8056 30.6945 79.1757 30.6622 83.696 30.0377C86.3689 29.6685 90.7482 29.0684 93.4277 28.704C97.9555 28.0885 98.3267 28.0176 98.6843 27.6984C99.039 27.3816 99.2127 26.7748 100.923 19.8756C101.943 15.762 102.779 12.1822 102.782 11.9206C102.786 11.5577 102.686 11.3544 102.36 11.0629C102.124 10.8528 101.821 10.6808 101.685 10.6808C101.549 10.6808 95.7361 11.485 88.767 12.4679C81.798 13.4506 76.0827 14.2381 76.0663 14.2176C76.05 14.1971 75.8385 13.5021 75.5963 12.6731C75.354 11.844 75.0874 11.0834 75.004 10.9829C74.6708 10.5813 74.0405 10.4205 71.721 10.1449C68.9026 9.81017 68.796 9.80742 68.2208 10.0576ZM97.5415 14.2832C97.5396 14.3777 97.4814 14.7018 97.4122 15.0037C97.3429 15.3057 96.9743 17.4054 96.593 19.6698C96.2117 21.9342 95.8679 23.9235 95.8289 24.0906C95.7803 24.2986 95.5964 24.4395 95.2447 24.5384C94.3955 24.7767 81.8808 27.4236 81.6027 27.4236C81.2939 27.4236 81.3856 27.6333 79.8342 23.3751C79.1466 21.4881 78.4717 19.6397 78.3344 19.2675C78.1972 18.8953 78.115 18.5126 78.1516 18.4169C78.2282 18.2174 78.0922 18.2496 88.7617 15.9033C93.1772 14.9322 96.9599 14.1319 97.1674 14.1247C97.3864 14.1172 97.5434 14.1837 97.5415 14.2832ZM92.1786 0.314687C91.0565 0.698674 90.1447 1.2317 89.4028 1.93737C88.6959 2.60983 88.8209 2.74267 90.0664 2.64263C90.5488 2.60393 90.9434 2.61875 90.9434 2.6757C90.9434 2.73265 90.6904 3.02483 90.381 3.32496C88.4888 5.16132 88.9903 8.41698 91.2635 9.05348C92.2789 9.33783 93.6561 9.18097 94.7129 8.66071C97.1102 7.48048 98.3027 4.10652 97.1331 1.81372C96.8299 1.21962 95.9066 0.330742 95.3876 0.133396C94.762 -0.104297 93.1346 -0.012484 92.1786 0.314687ZM101.474 27.9903C99.2988 30.2733 98.0283 31.3277 96.4236 32.1815C94.4618 33.2253 91.4364 34.0725 88.4673 34.4095C86.7193 34.6078 83.7494 34.5082 82.1762 34.1983C79.3144 33.6345 76.2876 32.2786 73.5914 30.3524C72.0423 29.2459 71.721 29.1029 71.721 29.5203C71.721 29.8354 72.9603 31.4054 74.0557 32.4779C77.5522 35.9017 81.7955 37.6057 86.817 37.6027C93.225 37.5989 98.0129 35.2683 101.657 30.3787C102.678 29.0091 103.793 26.9819 103.859 26.3758C103.947 25.5601 103.504 25.8605 101.474 27.9903Z" fill="#0182FE"/>
<path d="M75.8423 7.80188C76.6988 6.80717 77.7941 6.01106 79.1765 5.3783C80.3544 4.83916 82.4188 4.51473 83.247 4.73827C83.9343 4.9239 85.2254 5.94021 85.6878 6.65946C86.5925 8.06706 85.6134 8.14361 84.4284 7.87707C82.7701 7.50408 81.0382 7.33044 79.4249 7.86549L79.3329 7.90482C78.6769 8.18532 77.9919 8.3924 77.2903 8.52228C76.9494 8.5854 76.6036 8.64407 76.2588 8.60819C75.8193 8.56245 75.3354 8.39057 75.8423 7.80188Z" fill="#0182FE"/>
<path d="M0.557949 21.529L2.12919 20.4661V12.9334L5.0252 12.194V22.0066L2.14459 23.9321L0.557949 21.529ZM2.63753 8.48158H4.85575V10.6536H2.63753V8.48158ZM10.3994 19.6805C9.72158 19.6805 9.09514 19.5111 8.52005 19.1722C7.94495 18.8333 7.48796 18.3763 7.14907 17.8012C6.81017 17.2261 6.64072 16.5997 6.64072 15.9219V9.06695L9.52133 8.32754V15.9219C9.52133 16.1581 9.60862 16.3583 9.7832 16.5226C9.95778 16.6869 10.1632 16.7691 10.3994 16.7691L10.9077 18.2325L10.3994 19.6805ZM10.3476 19.6805L9.87009 18.2325L10.363 16.7691H10.3938C10.63 16.7691 10.8303 16.6869 10.9946 16.5226C11.1589 16.3583 11.2411 16.1581 11.2411 15.9219V12.9334H14.1525V15.9527C14.1525 16.1786 14.2295 16.3737 14.3836 16.538C14.5479 16.6921 14.743 16.7691 14.9689 16.7691C15.1948 16.7691 15.3848 16.6921 15.5389 16.538C15.7032 16.3737 15.7853 16.1786 15.7853 15.9527V12.9334H18.6968V15.9527C18.6968 16.1786 18.7738 16.3737 18.9278 16.538C19.0921 16.6921 19.2873 16.7691 19.5132 16.7691C19.7391 16.7691 19.9291 16.6921 20.0831 16.538C20.2475 16.3737 20.3296 16.1786 20.3296 15.9527V12.918L23.2256 12.194V15.9527C23.2256 16.6305 23.0562 17.2569 22.7173 17.832C22.3887 18.3968 21.9368 18.8487 21.3617 19.1876C20.7969 19.5162 20.1807 19.6805 19.5132 19.6805C18.6916 19.6805 17.9368 19.4238 17.2488 18.9103C16.9304 19.1568 16.571 19.3468 16.1705 19.4803C15.7802 19.6138 15.3797 19.6805 14.9689 19.6805C14.5581 19.6805 14.1525 19.6086 13.752 19.4649C13.3617 19.3211 13.0074 19.1311 12.6891 18.8949C11.9805 19.4186 11.2154 19.6805 10.3938 19.6805H10.3476ZM24.7479 18.2325L25.2716 16.7691H28.3525L28.8762 18.2787L28.3525 19.6805H25.2716L24.7479 18.2325ZM27.8318 18.2325L28.3555 16.7691H31.4364L31.9601 18.2787L31.4364 19.6805H28.3555L27.8318 18.2325ZM31.3778 19.6805L30.9156 18.2325L31.4086 16.7691H31.4394C31.6756 16.7691 31.8758 16.6869 32.0401 16.5226C32.2044 16.3583 32.2866 16.1581 32.2866 15.9219V12.9026L35.198 12.194V15.9219C35.198 16.5997 35.0286 17.2261 34.6897 17.8012C34.3508 18.3763 33.8938 18.8333 33.3187 19.1722C32.7436 19.5111 32.1172 19.6805 31.4394 19.6805H31.3778ZM30.7616 8.45077H35.2596V10.6536H30.7616V8.45077ZM35.0822 21.529L36.6535 20.4661V12.9334L39.5495 12.194V22.0066L36.6689 23.9321L35.0822 21.529ZM44.9237 19.6805C44.2459 19.6805 43.6194 19.5111 43.0443 19.1722C42.4693 18.8333 42.0123 18.3763 41.6734 17.8012C41.3345 17.2261 41.165 16.5997 41.165 15.9219V9.06695L44.0456 8.32754V15.9219C44.0456 16.1581 44.1329 16.3583 44.3075 16.5226C44.4821 16.6869 44.6875 16.7691 44.9237 16.7691L45.432 18.2325L44.9237 19.6805ZM44.3944 18.2325L44.9181 16.7691H56.2095C56.4457 16.7691 56.6459 16.6869 56.8103 16.5226C56.9746 16.3583 57.0567 16.1581 57.0567 15.9219C57.0567 15.6857 56.9746 15.4854 56.8103 15.3211C56.6459 15.1568 56.4457 15.0746 56.2095 15.0746H45.6729V12.1632L52.4971 8.34294L53.9451 10.5149L51.0028 12.1632H56.2095C56.8873 12.1632 57.5137 12.3327 58.0888 12.6716C58.6639 13.0104 59.1209 13.4674 59.4598 14.0425C59.7987 14.6176 59.9681 15.2441 59.9681 15.9219C59.9681 16.5997 59.7987 17.2261 59.4598 17.8012C59.1209 18.3763 58.6639 18.8333 58.0888 19.1722C57.5137 19.5111 56.8873 19.6805 56.2095 19.6805H44.9181L44.3944 18.2325Z" fill="#171F26"/>
<path d="M4.80027 32.6221C4.25256 32.6221 3.75653 32.5032 3.31216 32.2655C2.87296 32.0227 2.52677 31.6894 2.27359 31.2657C2.02557 30.842 1.90156 30.3641 1.90156 29.8319C1.90156 29.2997 2.02816 28.8217 2.28134 28.398C2.53452 27.9743 2.88071 27.6436 3.31991 27.4059C3.76428 27.1631 4.26031 27.0417 4.80802 27.0417C5.25238 27.0417 5.65799 27.1192 6.02485 27.2742C6.39171 27.4292 6.70173 27.654 6.95492 27.9485L6.30387 28.5608C5.91118 28.1371 5.42806 27.9252 4.85452 27.9252C4.48249 27.9252 4.14922 28.0079 3.8547 28.1733C3.56018 28.3334 3.33025 28.5582 3.1649 28.8475C2.99956 29.1369 2.91688 29.465 2.91688 29.8319C2.91688 30.1987 2.99956 30.5268 3.1649 30.8162C3.33025 31.1055 3.56018 31.3329 3.8547 31.4982C4.14922 31.6584 4.48249 31.7385 4.85452 31.7385C5.42806 31.7385 5.91118 31.5241 6.30387 31.0952L6.95492 31.7152C6.70173 32.0098 6.38913 32.2345 6.0171 32.3895C5.65024 32.5446 5.24463 32.6221 4.80027 32.6221ZM11.3256 31.289H8.61287L8.07808 32.5446H7.03951L9.48093 27.1192H10.473L12.9222 32.5446H11.8681L11.3256 31.289ZM10.9923 30.4984L9.96921 28.1267L8.95389 30.4984H10.9923ZM17.1619 32.5446L16.0536 30.9557C16.0071 30.9609 15.9373 30.9634 15.8443 30.9634H14.6197V32.5446H13.6121V27.1192H15.8443C16.3145 27.1192 16.7227 27.1967 17.0689 27.3517C17.4202 27.5067 17.6889 27.7289 17.8749 28.0182C18.061 28.3076 18.154 28.6512 18.154 29.0491C18.154 29.4573 18.0532 29.8086 17.8517 30.1031C17.6553 30.3977 17.3712 30.6173 16.9991 30.7619L18.247 32.5446H17.1619ZM17.1386 29.0491C17.1386 28.7029 17.025 28.4368 16.7976 28.2508C16.5703 28.0647 16.237 27.9717 15.7978 27.9717H14.6197V30.1341H15.7978C16.237 30.1341 16.5703 30.0411 16.7976 29.8551C17.025 29.6639 17.1386 29.3953 17.1386 29.0491ZM20.3061 27.9717H18.508V27.1192H23.1118V27.9717H21.3137V32.5446H20.3061V27.9717ZM25.4969 32.6221C25.0783 32.6221 24.6727 32.5626 24.28 32.4438C23.8925 32.325 23.5851 32.1674 23.3577 31.971L23.7065 31.1882C23.9287 31.3639 24.1999 31.5086 24.5203 31.6222C24.8458 31.7307 25.1713 31.785 25.4969 31.785C25.8999 31.785 26.1996 31.7204 26.3959 31.5912C26.5974 31.4621 26.6982 31.2916 26.6982 31.0797C26.6982 30.9247 26.6414 30.7981 26.5277 30.6999C26.4192 30.5966 26.2797 30.5165 26.1092 30.4597C25.9387 30.4028 25.7061 30.3382 25.4116 30.2659C24.9983 30.1677 24.6624 30.0695 24.404 29.9714C24.1509 29.8732 23.9313 29.7208 23.7453 29.5141C23.5644 29.3022 23.474 29.0181 23.474 28.6615C23.474 28.3618 23.5541 28.0906 23.7142 27.8477C23.8796 27.5997 24.125 27.4034 24.4505 27.2587C24.7812 27.114 25.1843 27.0417 25.6596 27.0417C25.9903 27.0417 26.3158 27.083 26.6362 27.1657C26.9566 27.2484 27.233 27.3672 27.4655 27.5222L27.1477 28.305C26.9101 28.1655 26.662 28.0596 26.4037 27.9872C26.1453 27.9149 25.8947 27.8787 25.6519 27.8787C25.254 27.8787 24.9569 27.9459 24.7606 28.0802C24.5694 28.2146 24.4738 28.3928 24.4738 28.615C24.4738 28.77 24.5281 28.8966 24.6366 28.9948C24.7502 29.093 24.8923 29.1705 25.0628 29.2273C25.2334 29.2842 25.4659 29.3487 25.7604 29.4211C26.1634 29.5141 26.4941 29.6123 26.7525 29.7156C27.0108 29.8138 27.2304 29.9662 27.4113 30.1729C27.5973 30.3796 27.6903 30.6586 27.6903 31.0099C27.6903 31.3096 27.6076 31.5809 27.4423 31.8238C27.2821 32.0666 27.0366 32.2604 26.706 32.405C26.3753 32.5497 25.9722 32.6221 25.4969 32.6221ZM32.2081 31.289H29.4954L28.9606 32.5446H27.9221L30.3635 27.1192H31.3556L33.8047 32.5446H32.7507L32.2081 31.289ZM31.8748 30.4984L30.8518 28.1267L29.8364 30.4984H31.8748ZM38.711 31.692V32.5446H34.0839V31.8703L37.2772 27.9717H34.1382V27.1192H38.6102V27.7935L35.417 31.692H38.711Z" fill="#0182FE"/>
<path d="M39.851 32.5988C39.6753 32.5988 39.5255 32.5394 39.4015 32.4205C39.2775 32.2965 39.2155 32.1415 39.2155 31.9555C39.2155 31.7643 39.2749 31.6093 39.3937 31.4905C39.5177 31.3716 39.6701 31.3122 39.851 31.3122C40.0318 31.3122 40.1817 31.3716 40.3005 31.4905C40.4245 31.6093 40.4865 31.7643 40.4865 31.9555C40.4865 32.1415 40.4245 32.2965 40.3005 32.4205C40.1765 32.5394 40.0267 32.5988 39.851 32.5988ZM43.886 32.6221C43.3383 32.6221 42.8423 32.5032 42.3979 32.2655C41.9587 32.0227 41.6125 31.6894 41.3593 31.2657C41.1113 30.842 40.9873 30.3641 40.9873 29.8319C40.9873 29.2997 41.1139 28.8217 41.3671 28.398C41.6203 27.9743 41.9665 27.6436 42.4056 27.4059C42.85 27.1631 43.346 27.0417 43.8938 27.0417C44.3381 27.0417 44.7437 27.1192 45.1106 27.2742C45.4774 27.4292 45.7875 27.654 46.0407 27.9485L45.3896 28.5608C44.9969 28.1371 44.5138 27.9252 43.9403 27.9252C43.5682 27.9252 43.235 28.0079 42.9404 28.1733C42.6459 28.3334 42.416 28.5582 42.2506 28.8475C42.0853 29.1369 42.0026 29.465 42.0026 29.8319C42.0026 30.1987 42.0853 30.5268 42.2506 30.8162C42.416 31.1055 42.6459 31.3329 42.9404 31.4982C43.235 31.6584 43.5682 31.7385 43.9403 31.7385C44.5138 31.7385 44.9969 31.5241 45.3896 31.0952L46.0407 31.7152C45.7875 32.0098 45.4749 32.2345 45.1028 32.3895C44.736 32.5446 44.3304 32.6221 43.886 32.6221ZM49.427 32.6221C48.8741 32.6221 48.3755 32.5032 47.9311 32.2655C47.4867 32.0227 47.138 31.6894 46.8848 31.2657C46.6316 30.8369 46.505 30.3589 46.505 29.8319C46.505 29.3048 46.6316 28.8295 46.8848 28.4058C47.138 27.9769 47.4867 27.6436 47.9311 27.4059C48.3755 27.1631 48.8741 27.0417 49.427 27.0417C49.9798 27.0417 50.4785 27.1631 50.9228 27.4059C51.3672 27.6436 51.716 27.9743 51.9691 28.398C52.2223 28.8217 52.3489 29.2997 52.3489 29.8319C52.3489 30.3641 52.2223 30.842 51.9691 31.2657C51.716 31.6894 51.3672 32.0227 50.9228 32.2655C50.4785 32.5032 49.9798 32.6221 49.427 32.6221ZM49.427 31.7385C49.7887 31.7385 50.1142 31.6584 50.4035 31.4982C50.6929 31.3329 50.9202 31.1055 51.0856 30.8162C51.2509 30.5217 51.3336 30.1936 51.3336 29.8319C51.3336 29.4702 51.2509 29.1447 51.0856 28.8553C50.9202 28.5608 50.6929 28.3334 50.4035 28.1733C50.1142 28.0079 49.7887 27.9252 49.427 27.9252C49.0653 27.9252 48.7398 28.0079 48.4504 28.1733C48.161 28.3334 47.9337 28.5608 47.7684 28.8553C47.603 29.1447 47.5203 29.4702 47.5203 29.8319C47.5203 30.1936 47.603 30.5217 47.7684 30.8162C47.9337 31.1055 48.161 31.3329 48.4504 31.4982C48.7398 31.6584 49.0653 31.7385 49.427 31.7385ZM58.4005 32.5446L58.3928 28.9483L56.6101 31.9245H56.1606L54.378 28.9948V32.5446H53.4169V27.1192H54.2462L56.4009 30.7154L58.5168 27.1192H59.3461L59.3538 32.5446H58.4005Z" fill="#171F26"/>
</svg>
